<svg xmlns="http://www.w3.org/2000/svg" width="21.626" height="20.105" viewBox="0 0 21.626 20.105">
  <g id="Group_290" data-name="Group 290" transform="translate(0)">
    <path id="Path_127" data-name="Path 127" d="M3493.58,2987.409h-14.868a3.383,3.383,0,0,0-3.379,3.379v11.827a3.383,3.383,0,0,0,3.379,3.379h8.026a.845.845,0,0,0,.668-1.362l-2.21-2.856,6.125-7.79,3.949,4.712v1.424a.845.845,0,1,0,1.689,0v-9.334A3.383,3.383,0,0,0,3493.58,2987.409Zm-1.634,4.695a.845.845,0,0,0-1.311.021l-6.505,8.275-2.216-2.863a.844.844,0,0,0-.668-.328h0a.845.845,0,0,0-.668.33l-1.86,2.416a.845.845,0,1,0,1.339,1.031l1.192-1.549,3.767,4.868h-6.3a1.691,1.691,0,0,1-1.689-1.689v-11.827a1.691,1.691,0,0,1,1.689-1.689h14.868a1.691,1.691,0,0,1,1.689,1.689v5.28Zm-10.7-1.653a2.534,2.534,0,1,0,2.534,2.534A2.537,2.537,0,0,0,3481.247,2990.45Zm0,3.379a.845.845,0,1,1,.844-.845A.846.846,0,0,1,3481.247,2993.83Zm15.713,9.672a.845.845,0,0,1-.845.845h-2.323v2.323a.845.845,0,0,1-1.689,0v-2.323h-2.323a.845.845,0,1,1,0-1.689h2.323v-2.323a.845.845,0,0,1,1.689,0v2.323h2.323A.845.845,0,0,1,3496.959,3003.5Z" transform="translate(-3475.333 -2987.409)" fill="#202020"/>
  </g>
</svg>
