<svg xmlns="http://www.w3.org/2000/svg" width="19.251" height="17.898" viewBox="0 0 19.251 17.898">
  <g id="Group_2087" data-name="Group 2087" transform="translate(0 0)">
    <path id="Path_127" data-name="Path 127" d="M3491.576,2987.409h-13.236a3.012,3.012,0,0,0-3.008,3.009v10.528a3.012,3.012,0,0,0,3.008,3.008h7.145a.752.752,0,0,0,.594-1.212l-1.967-2.542,5.452-6.935,3.516,4.195v1.268a.752.752,0,1,0,1.5,0v-8.309A3.012,3.012,0,0,0,3491.576,2987.409Zm-1.454,4.179a.752.752,0,0,0-1.167.018l-5.791,7.366-1.972-2.548a.75.75,0,0,0-.595-.292h0a.753.753,0,0,0-.595.293l-1.655,2.151a.752.752,0,1,0,1.192.917l1.061-1.379,3.353,4.334h-5.611a1.506,1.506,0,0,1-1.5-1.5v-10.528a1.506,1.506,0,0,1,1.5-1.5h13.236a1.506,1.506,0,0,1,1.5,1.5v4.7Zm-9.526-1.472a2.256,2.256,0,1,0,2.256,2.256A2.259,2.259,0,0,0,3480.6,2990.116Zm0,3.009a.752.752,0,1,1,.752-.752A.753.753,0,0,1,3480.6,2993.125Zm13.988,8.61a.752.752,0,0,1-.752.752h-2.068v2.068a.752.752,0,0,1-1.5,0v-2.068h-2.068a.752.752,0,1,1,0-1.5h2.068v-2.068a.752.752,0,0,1,1.5,0v2.068h2.068A.752.752,0,0,1,3494.584,3001.734Z" transform="translate(-3475.333 -2987.409)" fill="#fff"/>
  </g>
</svg>
